<svg id="Layer_1" class="h-5 md:h-8 w-auto" data-name="Layer 1" xmlns="http://www.w3.org/2000/svg" viewBox="0 0 1750 414.77">
					<path class="cls-1" d="M855.57,676.57l19.64,47.95-1.58,1-1.16.74c-6.81,4.37-27.51,17.69-63.5,17.69H806.5c-65-.46-102.28-37.85-102.28-102.76V360.41a31.12,31.12,0,1,1,62.23,0v54.36h69.67v53.67H766.45V638.73c0,33.37,17,51.75,47.9,51.75a76.68,76.68,0,0,0,12.32-1,61.74,61.74,0,0,0,26.66-11.23ZM668.24,575.68c-1-43.12-18.83-83.5-50.35-113.77A169.33,169.33,0,0,0,500,414.77h-1.89c-90.33,0-163.81,73.82-163.81,164.57s73.48,164.58,163.81,164.58a162.67,162.67,0,0,0,108.21-41.08v37.44h62.23v-164Zm-57,3.92c-.13,58.8-52,108.47-113.19,108.47-59.67,0-108.22-48.78-108.22-108.73S438.4,470.61,498.07,470.61c60.26,0,112.08,48.93,113.15,106.85l0,.82c0,.35,0,.71,0,1.06Zm426,98.64a61.75,61.75,0,0,1-26.65,11.23,76.8,76.8,0,0,1-12.33,1c-30.88,0-47.89-18.38-47.89-51.75V468.44h69.67V414.77H950.41V360.41a31.12,31.12,0,1,0-62.24,0V641.15c0,65,37.32,102.36,102.44,102.76h2.31c36,0,56.69-13.31,63.49-17.69l1.17-.74,1.58-1-19.64-47.95ZM2084,575.68c-1-43.12-18.83-83.5-50.35-113.77a169.33,169.33,0,0,0-117.93-47.14h-1.89c-90.32,0-163.81,73.82-163.81,164.57s73.49,164.58,163.81,164.58A162.7,162.7,0,0,0,2022,702.84v37.44h62.23v-164Zm-57,3.92c-.14,58.8-52,108.47-113.2,108.47-59.67,0-108.22-48.78-108.22-108.73s48.55-108.73,108.22-108.73c60.27,0,112.08,48.93,113.15,106.85l0,.83q0,.53,0,1.05ZM1762.45,451.9c0-12.15-7.22-23.7-17.52-28.08-13.57-6.13-34-9.78-54.62-9.78-67.78,0-108.24,38.41-108.24,102.76V739.55h62.23v-215c0-31.92,20.17-51.75,52.64-51.75,8.33,0,21.34,1.23,30.31,4a39,39,0,0,0,9.35,1.39C1751.34,478.11,1762.45,466.84,1762.45,451.9Zm-213.3-28.08c-13.57-6.13-34-9.78-54.62-9.78-67.78,0-108.25,38.41-108.25,102.76V739.55h62.24v-215c0-31.92,20.17-51.75,52.64-51.75,8.32,0,21.33,1.23,30.3,4a39.14,39.14,0,0,0,9.35,1.39c14.74,0,25.86-11.27,25.86-26.21C1566.67,439.75,1559.45,428.2,1549.15,423.82Zm-230.46-9.91a31.24,31.24,0,0,0-31,28.92,20,20,0,0,0-.13,2.3V596.92c0,46.58-37.71,84.48-84.08,84.48s-84.08-37.9-84.08-84.48V445.17a31.12,31.12,0,1,0-62.23,0V596.92a146.67,146.67,0,0,0,143.33,147l2.94,0c38,0,73.92-14.82,101.43-41.92a149.72,149.72,0,0,0,44.93-107.48V445.17A31.23,31.23,0,0,0,1318.69,413.91Z" transform="translate(-334.26 -329.15)" fill="#004C45"></path></svg>